<?xml version="1.0" encoding="UTF-8"?>
<svg width="209px" height="60px" viewBox="0 0 209 60" version="1.1" xmlns="http://www.w3.org/2000/svg" xmlns:xlink="http://www.w3.org/1999/xlink">
    <!-- Generator: Sketch 49.1 (51147) - http://www.bohemiancoding.com/sketch -->
    <title>logo@1x</title>
    <desc>Created with Sketch.</desc>
    <defs></defs>
    <g id="Page-1" stroke="none" stroke-width="1" fill="none" fill-rule="evenodd">
        <g id="logo" transform="translate(0.500000, 0.356934)" fill="#2F2F2F">
            <path d="M24.7659893,16.3423262 C20.9366091,16.3423262 17.8212724,19.4534286 17.8212724,23.2767759 C17.8212724,27.1009514 20.9366091,30.2116398 24.7659893,30.2116398 C28.5949549,30.2116398 31.7098769,27.1009514 31.7098769,23.2767759 C31.7098769,19.4534286 28.5949549,16.3423262 24.7659893,16.3423262 M24.7659893,31.2870468 C20.3432313,31.2870468 16.7448164,27.6935227 16.7448164,23.2767759 C16.7448164,18.8604433 20.3432313,15.2673332 24.7659893,15.2673332 C29.1883327,15.2673332 32.7867476,18.8604433 32.7867476,23.2767759 C32.7867476,27.6935227 29.1883327,31.2870468 24.7659893,31.2870468 Z M2.27676672,22.0676987 C3.49213365,22.0676987 4.47736457,23.0515906 4.47736457,24.2653056 C4.47736457,25.4790207 3.49213365,26.4624984 2.27676672,26.4624984 C1.0613998,26.4624984 0.0761688774,25.4790207 0.0761688774,24.2653056 C0.0761688774,23.0515906 1.0613998,22.0676987 2.27676672,22.0676987 Z M49.6443554,24.26514 C49.6443554,25.4792691 48.6591245,26.4627469 47.4437576,26.4627469 C47.420122,26.4627469 47.3981451,26.4565354 47.3740948,26.4557072 C46.9436783,26.4420421 46.5431172,26.3099455 46.2089017,26.0842632 C45.6263051,25.6888016 45.2431598,25.0216932 45.2431598,24.26514 C45.2431598,23.0514249 46.2283907,22.0675331 47.4437576,22.0675331 C48.6591245,22.0675331 49.6443554,23.0514249 49.6443554,24.26514 Z M26.8773525,39.0262091 C26.8773525,40.2403382 25.8921215,41.2242301 24.6767546,41.2242301 C23.4613877,41.2242301 22.4761568,40.2403382 22.4761568,39.0262091 C22.4761568,37.8129081 23.4613877,36.8290163 24.6767546,36.8290163 C25.8921215,36.8290163 26.8773525,37.8129081 26.8773525,39.0262091 Z M26.8773525,57.3038219 C26.8773525,58.517951 25.8921215,59.5014287 24.6767546,59.5014287 C23.4613877,59.5014287 22.4761568,58.517951 22.4761568,57.3038219 C22.4761568,56.0901068 23.4613877,55.106215 24.6767546,55.106215 C25.8921215,55.106215 26.8773525,56.0901068 26.8773525,57.3038219 Z M24.676879,43.9116296 C24.8514506,43.9116296 25.0243636,43.9021053 25.194374,43.8838851 L25.1952034,52.4465599 C25.0247783,52.4287538 24.8518653,52.4184014 24.676879,52.4184014 C24.4873796,52.4184014 24.3016122,52.4320666 24.117918,52.4527713 L24.117918,43.8772596 C24.3016122,43.8983785 24.4873796,43.9116296 24.676879,43.9116296 Z M5.96881178,27.460221 L20.7427143,36.1347017 C20.529994,36.4229125 20.3462998,36.7330703 20.199925,37.0635188 L5.13783418,28.2192588 C5.44343822,27.9985457 5.72208939,27.7442908 5.96881178,27.460221 Z M4.47765483,28.6220499 L22.0579727,53.1841475 C21.7536126,53.3783585 21.4695709,53.6011421 21.2153846,53.8553969 L3.43022499,29.0075731 C3.79719863,28.9185425 4.14800055,28.7889305 4.47765483,28.6220499 Z M47.443882,19.3800922 C47.137034,19.3800922 46.8376498,19.4115635 46.5465589,19.46581 C44.7610352,9.00450561 35.5336178,1.1797497 24.854063,1.1797497 C14.1757521,1.1797497 4.94792014,9.00367742 3.16198177,19.4641537 C2.87462276,19.4111494 2.57938521,19.3800922 2.27668379,19.3800922 C2.21158225,19.3800922 2.14855401,19.3875459 2.08386713,19.3896164 C3.91334475,8.36141469 13.6109859,0.104342675 24.854063,0.104342675 C36.0971401,0.104342675 45.7943666,8.36141469 47.6246735,19.3887882 C47.5637186,19.3871318 47.5044223,19.3800922 47.443882,19.3800922 Z M43.6167824,27.2940029 C43.8465037,27.5830419 44.1089832,27.8464069 44.4029767,28.0799569 L29.142264,37.0405779 C28.9942306,36.7105435 28.8097071,36.4012138 28.5953281,36.1146595 L43.6167824,27.2940029 Z M44.950659,28.4554177 C45.2670441,28.642589 45.599601,28.797875 45.9495736,28.9088527 L28.1117523,53.8303856 C27.8554927,53.5782012 27.5706216,53.357074 27.2646029,53.1657616 L44.950659,28.4554177 Z" id="Combined-Shape"></path>
            <g id="typo" transform="translate(68.583876, 13.517151)">
                <path d="M12.2726841,7.95428915 L7.63109624,7.95428915 L7.63109624,26.8796942 L12.3140275,26.8796942 C17.1686927,26.8796942 19.1102407,25.3218974 19.1102407,17.2280235 C19.1102407,9.7248737 17.2943129,7.95428915 12.2726841,7.95428915 M12.4412378,33.2013956 L0.49777555,33.2013956 L0.49777555,1.59130055 L12.3569609,1.59130055 C22.4018087,1.59130055 26.5806688,6.3536172 26.5806688,17.2708986 C26.5806688,28.6931539 21.8118706,33.2013956 12.4412378,33.2013956" id="Fill-25"></path>
                <path d="M45.7010213,17.8185888 C45.6167445,14.06622 43.928027,12.6322847 41.1850537,12.6322847 C38.019106,12.6322847 36.7947063,14.1075071 36.5005324,17.8185888 L45.7010213,17.8185888 Z M29.874463,20.0941473 C29.874463,11.9605741 33.461795,7.19825749 41.1421202,7.19825749 C47.6855029,7.19825749 51.6942192,10.9887376 51.6942192,19.0826115 C51.6942192,20.0528601 51.6528758,21.2755956 51.5256655,22.156918 L36.6261526,22.156918 C36.9648502,26.4158487 39.0336086,28.0181086 43.4207757,28.0181086 C45.8282317,28.0181086 48.0655438,27.5957091 50.2599224,26.7540859 L50.9770708,32.0213765 C48.8240356,32.991625 45.8695751,33.6649236 42.6209406,33.6649236 C33.7989024,33.6649236 29.874463,29.0296444 29.874463,20.0941473 Z" id="Fill-27"></path>
                <path d="M63.1754308,12.5490752 L63.1754308,25.6148775 C63.1754308,27.5966619 64.1883433,28.439873 66.2141682,28.439873 C66.8899732,28.439873 67.7772655,28.3128355 68.2399931,28.1445109 L68.6200341,32.9052396 C67.734332,33.2863519 66.0456145,33.6230012 64.2312768,33.6230012 C59.123781,33.6230012 56.6336383,30.6725563 56.6336383,25.8260773 L56.6336383,12.5490752 L53.7634547,12.5490752 L53.7634547,7.65972105 L56.9294024,7.65972105 L58.0265917,1.88428069 L63.1754308,1.42059397 L63.1754308,7.65972105 L68.8728646,7.65972105 L68.8728646,12.5490752 L63.1754308,12.5490752 Z" id="Fill-29"></path>
                <path d="M87.6554736,33.2020308 L87.6554736,16.9317086 C87.6554736,14.3195009 86.3467971,12.9713159 83.5608903,12.9713159 C81.6622758,12.9713159 80.0164918,13.814527 79.2134764,14.9086371 L79.2134764,33.2020308 L72.673274,33.2020308 L72.673274,0.412075365 L79.2134764,0.0738381375 L79.2134764,5.8889777 L79.1291996,9.26341014 L79.2564099,9.34598448 C81.1550245,7.74531253 83.4782036,7.15617633 85.6296487,7.15617633 C91.0313185,7.15617633 94.1972662,10.7783318 94.1972662,16.9317086 L94.1972662,33.2020308 L87.6554736,33.2020308 Z" id="Fill-31"></path>
                <path d="M113.865577,17.8185888 C113.782891,14.06622 112.094173,12.6322847 109.34961,12.6322847 C106.185252,12.6322847 104.960852,14.1075071 104.666678,17.8185888 L113.865577,17.8185888 Z M98.040609,20.0941473 C98.040609,11.9605741 101.627941,7.19825749 109.308266,7.19825749 C115.850059,7.19825749 119.858775,10.9887376 119.858775,19.0826115 C119.858775,20.0528601 119.819022,21.2755956 119.691812,22.156918 L104.792299,22.156918 C105.129406,26.4158487 107.198165,28.0181086 111.586922,28.0181086 C113.992788,28.0181086 116.2301,27.5957091 118.426069,26.7540859 L119.143217,32.0213765 C116.990182,32.991625 114.034131,33.6649236 110.785497,33.6649236 C101.965049,33.6649236 98.040609,29.0296444 98.040609,20.0941473 Z" id="Fill-33"></path>
                <path d="M123.912492,33.2020308 L123.912492,7.82788688 L129.145608,7.57539994 L129.735546,11.8327427 L129.862757,11.8327427 C131.467197,8.75526031 133.95734,7.23716271 136.868867,7.23716271 C138.00899,7.23716271 138.980559,7.40707531 139.654774,7.61827508 L139.233389,14.065426 C138.431964,13.814527 137.461985,13.6462024 136.449073,13.6462024 C133.028704,13.6462024 130.497218,16.1313726 130.497218,20.3887154 L130.497218,33.2020308 L123.912492,33.2020308 Z" id="Fill-35"></path>
            </g>
        </g>
    </g>
</svg>