<?xml version="1.0" encoding="UTF-8"?>
<svg width="140px" height="196px" viewBox="0 0 140 196" version="1.1" xmlns="http://www.w3.org/2000/svg" xmlns:xlink="http://www.w3.org/1999/xlink">
    <!-- Generator: Sketch 49.1 (51147) - http://www.bohemiancoding.com/sketch -->
    <title>logo</title>
    <desc>Created with Sketch.</desc>
    <defs></defs>
    <g id="Page-1" stroke="none" stroke-width="1" fill="none" fill-rule="evenodd">
        <g id="logo" transform="translate(-1.000000, -0.334473)" fill="#2F2F2F">
            <path d="M70.5400311,39.3855781 C61.3926774,39.3855781 53.9509808,46.8171602 53.9509808,55.9501028 C53.9509808,65.0850237 61.3926774,72.5156167 70.5400311,72.5156167 C79.6863942,72.5156167 87.1271003,65.0850237 87.1271003,55.9501028 C87.1271003,46.8171602 79.6863942,39.3855781 70.5400311,39.3855781 M70.5400311,75.0844732 C59.9752586,75.0844732 51.3796186,66.5005161 51.3796186,55.9501028 C51.3796186,45.4006787 59.9752586,36.8177108 70.5400311,36.8177108 C81.103813,36.8177108 89.699453,45.4006787 89.699453,55.9501028 C89.699453,66.5005161 81.103813,75.0844732 70.5400311,75.0844732 Z M16.8193615,53.0619445 C19.7225443,53.0619445 22.0759945,55.4121959 22.0759945,58.3114329 C22.0759945,61.2106698 19.7225443,63.5599321 16.8193615,63.5599321 C13.9161786,63.5599321 11.5627285,61.2106698 11.5627285,58.3114329 C11.5627285,55.4121959 13.9161786,53.0619445 16.8193615,53.0619445 Z M129.967718,58.3110372 C129.967718,61.2112633 127.614268,63.5605256 124.711085,63.5605256 C124.654626,63.5605256 124.602129,63.5456882 124.54468,63.5437098 C123.516531,63.5110675 122.559699,63.1955244 121.761348,62.6564306 C120.369683,61.7117798 119.454452,60.1182381 119.454452,58.3110372 C119.454452,55.4118003 121.807902,53.0615488 124.711085,53.0615488 C127.614268,53.0615488 129.967718,55.4118003 129.967718,58.3110372 Z M75.5835065,93.5712385 C75.5835065,96.4714646 73.2300563,98.821716 70.3268735,98.821716 C67.4236906,98.821716 65.0702405,96.4714646 65.0702405,93.5712385 C65.0702405,90.6729907 67.4236906,88.3227393 70.3268735,88.3227393 C73.2300563,88.3227393 75.5835065,90.6729907 75.5835065,93.5712385 Z M75.5835065,137.231511 C75.5835065,140.131738 73.2300563,142.481 70.3268735,142.481 C67.4236906,142.481 65.0702405,140.131738 65.0702405,137.231511 C65.0702405,134.332274 67.4236906,131.982023 70.3268735,131.982023 C73.2300563,131.982023 75.5835065,134.332274 75.5835065,137.231511 Z M70.3271706,105.241187 C70.744175,105.241187 71.1572174,105.218436 71.5633262,105.174913 L71.5653073,125.628826 C71.1582079,125.586292 70.7451655,125.561563 70.3271706,125.561563 C69.8745078,125.561563 69.4307597,125.594206 68.991964,125.643664 L68.991964,105.159086 C69.4307597,105.209533 69.8745078,105.241187 70.3271706,105.241187 Z M25.6386584,65.9432216 L60.9295153,86.6642095 C60.421384,87.352667 59.9825883,88.0935502 59.6329386,88.8829023 L23.6536777,67.7563575 C24.3836831,67.2291336 25.0493054,66.6217875 25.6386584,65.9432216 Z M22.0766878,68.7185164 L64.0713118,127.390724 C63.344278,127.854641 62.6657791,128.386811 62.0585968,128.994157 L19.5746613,69.6394272 C20.451262,69.4267572 21.2892329,69.1171491 22.0766878,68.7185164 Z M124.711382,46.6419794 C123.978405,46.6419794 123.263258,46.7171558 122.56792,46.8467362 C118.302787,21.8575096 96.260983,3.16628432 70.7504152,3.16628432 C45.242819,3.16628432 23.2000245,21.8555313 18.9339008,46.8427795 C18.2474778,46.7161667 17.5422352,46.6419794 16.8191634,46.6419794 C16.6636534,46.6419794 16.513096,46.6597844 16.3585765,46.6647302 C20.7287037,20.3213394 43.8937453,0.597427839 70.7504152,0.597427839 C97.6070851,0.597427839 120.771136,20.3213394 125.143244,46.6627519 C124.99764,46.6587952 124.855997,46.6419794 124.711382,46.6419794 Z M115.569477,65.5461716 C116.118219,66.2366074 116.745211,66.8657151 117.447482,67.4236031 L80.9937675,88.8281027 C80.6401556,88.0397397 80.199379,87.3008349 79.6872857,86.6163341 L115.569477,65.5461716 Z M118.755747,68.3204772 C119.511506,68.7675789 120.305894,69.1385151 121.141884,69.4036108 L78.5321537,128.934412 C77.9200189,128.332011 77.239539,127.803798 76.5085431,127.346805 L118.755747,68.3204772 Z" id="Combined-Shape"></path>
            <g id="typo" transform="translate(0.583876, 162.517151)">
                <path d="M12.2726841,7.95428915 L7.63109624,7.95428915 L7.63109624,26.8796942 L12.3140275,26.8796942 C17.1686927,26.8796942 19.1102407,25.3218974 19.1102407,17.2280235 C19.1102407,9.7248737 17.2943129,7.95428915 12.2726841,7.95428915 M12.4412378,33.2013956 L0.49777555,33.2013956 L0.49777555,1.59130055 L12.3569609,1.59130055 C22.4018087,1.59130055 26.5806688,6.3536172 26.5806688,17.2708986 C26.5806688,28.6931539 21.8118706,33.2013956 12.4412378,33.2013956" id="Fill-25"></path>
                <path d="M45.7010213,17.8185888 C45.6167445,14.06622 43.928027,12.6322847 41.1850537,12.6322847 C38.019106,12.6322847 36.7947063,14.1075071 36.5005324,17.8185888 L45.7010213,17.8185888 Z M29.874463,20.0941473 C29.874463,11.9605741 33.461795,7.19825749 41.1421202,7.19825749 C47.6855029,7.19825749 51.6942192,10.9887376 51.6942192,19.0826115 C51.6942192,20.0528601 51.6528758,21.2755956 51.5256655,22.156918 L36.6261526,22.156918 C36.9648502,26.4158487 39.0336086,28.0181086 43.4207757,28.0181086 C45.8282317,28.0181086 48.0655438,27.5957091 50.2599224,26.7540859 L50.9770708,32.0213765 C48.8240356,32.991625 45.8695751,33.6649236 42.6209406,33.6649236 C33.7989024,33.6649236 29.874463,29.0296444 29.874463,20.0941473 Z" id="Fill-27"></path>
                <path d="M63.1754308,12.5490752 L63.1754308,25.6148775 C63.1754308,27.5966619 64.1883433,28.439873 66.2141682,28.439873 C66.8899732,28.439873 67.7772655,28.3128355 68.2399931,28.1445109 L68.6200341,32.9052396 C67.734332,33.2863519 66.0456145,33.6230012 64.2312768,33.6230012 C59.123781,33.6230012 56.6336383,30.6725563 56.6336383,25.8260773 L56.6336383,12.5490752 L53.7634547,12.5490752 L53.7634547,7.65972105 L56.9294024,7.65972105 L58.0265917,1.88428069 L63.1754308,1.42059397 L63.1754308,7.65972105 L68.8728646,7.65972105 L68.8728646,12.5490752 L63.1754308,12.5490752 Z" id="Fill-29"></path>
                <path d="M87.6554736,33.2020308 L87.6554736,16.9317086 C87.6554736,14.3195009 86.3467971,12.9713159 83.5608903,12.9713159 C81.6622758,12.9713159 80.0164918,13.814527 79.2134764,14.9086371 L79.2134764,33.2020308 L72.673274,33.2020308 L72.673274,0.412075365 L79.2134764,0.0738381375 L79.2134764,5.8889777 L79.1291996,9.26341014 L79.2564099,9.34598448 C81.1550245,7.74531253 83.4782036,7.15617633 85.6296487,7.15617633 C91.0313185,7.15617633 94.1972662,10.7783318 94.1972662,16.9317086 L94.1972662,33.2020308 L87.6554736,33.2020308 Z" id="Fill-31"></path>
                <path d="M113.865577,17.8185888 C113.782891,14.06622 112.094173,12.6322847 109.34961,12.6322847 C106.185252,12.6322847 104.960852,14.1075071 104.666678,17.8185888 L113.865577,17.8185888 Z M98.040609,20.0941473 C98.040609,11.9605741 101.627941,7.19825749 109.308266,7.19825749 C115.850059,7.19825749 119.858775,10.9887376 119.858775,19.0826115 C119.858775,20.0528601 119.819022,21.2755956 119.691812,22.156918 L104.792299,22.156918 C105.129406,26.4158487 107.198165,28.0181086 111.586922,28.0181086 C113.992788,28.0181086 116.2301,27.5957091 118.426069,26.7540859 L119.143217,32.0213765 C116.990182,32.991625 114.034131,33.6649236 110.785497,33.6649236 C101.965049,33.6649236 98.040609,29.0296444 98.040609,20.0941473 Z" id="Fill-33"></path>
                <path d="M123.912492,33.2020308 L123.912492,7.82788688 L129.145608,7.57539994 L129.735546,11.8327427 L129.862757,11.8327427 C131.467197,8.75526031 133.95734,7.23716271 136.868867,7.23716271 C138.00899,7.23716271 138.980559,7.40707531 139.654774,7.61827508 L139.233389,14.065426 C138.431964,13.814527 137.461985,13.6462024 136.449073,13.6462024 C133.028704,13.6462024 130.497218,16.1313726 130.497218,20.3887154 L130.497218,33.2020308 L123.912492,33.2020308 Z" id="Fill-35"></path>
            </g>
        </g>
    </g>
</svg>